;Based on MIDI by ryanisthebomb203
Music_DahliaAfterBattle:
	musicheader 4, 1, Music_DahliaAfterBattle_Ch1
	musicheader 1, 2, Music_DahliaAfterBattle_Ch2
	musicheader 1, 3, Music_DahliaAfterBattle_Ch3
	musicheader 1, 4, Music_DahliaAfterBattle_Ch4

Music_DahliaAfterBattle_Ch1:
	volume $77
	dutycycle $2
	notetype 3, $a7
	tempo 115
;Bar 45
	octave 3
	intensity $77
	note C_, 8
	note D_, 16
	note C_, 8
	note D_, 15
	note __, 9
	note C_, 16
;Bar 46
	note D_, 16
	note G_, 8
	note F_, 16
	note C_, 16
;Bar 47
	note C_, 8
	note D_, 16
	note C_, 8
	note D_, 15
	note __, 16
	note __, 9
;Bar 48
	note C_, 16
	octave 2
	note B_, 16
	note B_, 16
	note B_, 6
	note __, 2
;Bar 49
	octave 3
	note C_, 8
	note D_, 16
	note C_, 8
	note D_, 15
	note __, 9
	note C_, 16
;Bar 50
	note D_, 16
	note G_, 8
	note F_, 16
	note C_, 16
;Bar 51
	note C_, 8
	note D_, 16
	note C_, 8
	note D_, 15
	note __, 16
	note __, 9
;Bar 52
	note C_, 16
	octave 2
	note B_, 16
	note B_, 16
	note B_, 6
	note __, 2
;Bar 53
	octave 3
	note D_, 8
	octave 4
	note D_, 8
	note C_, 8
	octave 3
	note A_, 8
	note G_, 8
	note A_, 16
	note D_, 16
;Bar 54
	octave 4
	note D_, 8
	note C_, 8
	octave 3
	note G_, 8
	note A_, 8
	note G_, 8
	note E_, 8
	note F_, 8
;Bar 55
	note __, 8
	note C_, 8
	note D_, 16
	note C_, 8
	note D_, 16
	note G_, 8
;Bar 56
	note F_, 8
	note C_, 8
	note G_, 8
	note F_, 16
	note F_, 16
	note F_, 6
	note __, 2
;Bar 57
	note D_, 8
	octave 4
	note D_, 8
	note C_, 8
	octave 3
	note A_, 8
	note G_, 8
	note A_, 16
	note D_, 16
;Bar 58
	octave 4
	note D_, 8
	note C_, 8
	octave 3
	note G_, 8
	note A_, 8
	note G_, 8
	note E_, 8
	note F_, 8
;Bar 59
	note __, 8
	;note D_, 0 | WARNING: Rounded down to 0
	note A_, 8
	;note D_, 0 | WARNING: Rounded down to 0
	note A_, 16
	;note D_, 0 | WARNING: Rounded down to 0
	note A_, 8
	;note D_, 0 | WARNING: Rounded down to 0
	note A_, 8
	;note C#, 0 | WARNING: Rounded down to 0
	note A_, 16
	note A_, 16
	note A_, 16
	note A_, 16
	note A_, 12
;Bar 60
	note __, 4
	loopchannel 0, Music_DahliaAfterBattle_Ch1

Music_DahliaAfterBattle_Ch2:
	dutycycle $1
	notetype 3, $a7
	octave 2
	intensity $97
;Bar 45
	note D_, 16
	note D_, 16
	note D_, 16
	note D_, 13
	note __, 3
;Bar 46
	note D_, 16
	note D_, 16
	note D_, 16
	note D_, 13
	note __, 3
;Bar 47
	note D_, 16
	note D_, 16
	note D_, 16
	note D_, 13
	note __, 11
;Bar 48
	note C_, 16
	octave 1
	note B_, 16
	note B_, 16
	note B_, 6
	note __, 2
;Bar 49
	octave 2
	note D_, 16
	note D_, 16
	note D_, 16
	note D_, 13
	note __, 3
;Bar 50
	note D_, 16
	note D_, 16
	note D_, 16
	note D_, 13
	note __, 3
;Bar 51
	note D_, 16
	note D_, 16
	note D_, 16
	note D_, 13
	note __, 11
;Bar 52
	note C_, 16
	octave 1
	note B_, 16
	note B_, 16
	note B_, 6
	note __, 2
;Bar 53
	note A#, 16
	note A#, 16
	note A#, 16
	note A#, 13
	note __, 3
;Bar 54
	octave 2
	note C_, 16
	note C_, 16
	note C_, 16
	note C_, 13
	note __, 3
;Bar 55
	note D_, 16
	note D_, 16
	note D_, 16
	note D_, 13
	note __, 3
;Bar 56
	note D_, 16
	note D_, 16
	note D_, 16
	note D_, 13
	note __, 3
;Bar 57
	octave 1
	note A#, 16
	note A#, 16
	note A#, 16
	note A#, 13
	note __, 3
;Bar 58
	octave 2
	note C_, 16
	note C_, 16
	note C_, 16
	note C_, 13
	note __, 3
;Bar 59
	note D_, 16
	note D_, 16
	note D_, 14
	note __, 2
	octave 1
	note A_, 16
	note A_, 16
	note A_, 16
	note A_, 16
	note A_, 12
;Bar 60
	note __, 4
	loopchannel 0, Music_DahliaAfterBattle_Ch2

Music_DahliaAfterBattle_Ch3:
	endchannel

Music_DahliaAfterBattle_Ch4:
	endchannel
